<?xml version="1.0" standalone="no"?>
<!DOCTYPE svg PUBLIC "-//W3C//DTD SVG 20010904//EN"
 "http://www.w3.org/TR/2001/REC-SVG-20010904/DTD/svg10.dtd">
<svg version="1.0" xmlns="http://www.w3.org/2000/svg"
 width="260.000000pt" height="260.000000pt" viewBox="0 0 260.000000 260.000000"
 preserveAspectRatio="xMidYMid meet">
<metadata>
Created by potrace 1.11, written by Peter Selinger 2001-2013
</metadata>
<g transform="translate(0.000000,260.000000) scale(0.100000,-0.100000)"
fill="#000000" stroke="none">
<path d="M0 1300 l0 -1300 1300 0 1300 0 0 1300 0 1300 -1300 0 -1300 0 0
-1300z m1680 450 l0 -709 128 -3 127 -3 3 -147 3 -148 -131 0 -130 0 0 -305 0
-305 -155 0 -155 0 0 305 0 305 -340 0 -341 0 7 183 7 182 290 665 c159 366
291 671 294 678 4 9 53 12 199 12 l194 0 0 -710z"/>
<path d="M1186 1550 c-93 -267 -171 -491 -173 -497 -4 -10 35 -13 173 -13
l179 0 -3 457 c-1 252 -4 476 -5 498 -2 32 -34 -52 -171 -445z"/>
</g>
</svg>
